<svg xmlns="http://www.w3.org/2000/svg" width="33.202" height="31.719" viewBox="0 0 33.202 31.719">
    <g transform="translate(-281.688 -447.804)">
        <path d="M307.594,479.523a1.584,1.584,0,0,1-.754-.191l-8.376-4.385a.457.457,0,0,0-.387.008l-8.331,4.381a1.585,1.585,0,0,1-2.3-1.666l1.606-9.317a.284.284,0,0,0-.081-.3l-6.81-6.629a1.589,1.589,0,0,1,.855-2.7l9.36-1.357a.386.386,0,0,0,.3-.208l4.21-8.491a1.582,1.582,0,0,1,2.129-.7,1.555,1.555,0,0,1,.691.691l0,.007,4.174,8.491a.381.381,0,0,0,.29.205l9.354,1.357a1.566,1.566,0,0,1,1.351,1.751,1.571,1.571,0,0,1-.5.96l-6.73,6.588a.382.382,0,0,0-.112.333l1.6,9.305a1.574,1.574,0,0,1-1.257,1.831A1.6,1.6,0,0,1,307.594,479.523Zm-9.311-5.814a1.65,1.65,0,0,1,.722.168l8.4,4.4a.372.372,0,0,0,.259.043.375.375,0,0,0,.3-.437l-1.606-9.323a1.583,1.583,0,0,1,.458-1.388l6.742-6.6a.385.385,0,0,0,.13-.239.37.37,0,0,0-.32-.413l-9.359-1.357a1.576,1.576,0,0,1-1.2-.862l-4.173-8.489a.374.374,0,0,0-.164-.163.381.381,0,0,0-.513.166L293.75,457.7a1.58,1.58,0,0,1-1.208.864l-9.341,1.354a.392.392,0,0,0-.2.108.39.39,0,0,0,0,.549l6.775,6.6a1.441,1.441,0,0,1,.451,1.421l-1.6,9.281a.384.384,0,0,0,.558.4l8.347-4.388A1.712,1.712,0,0,1,298.283,473.709Z"/>
    </g>
</svg>