<svg xmlns="http://www.w3.org/2000/svg"
     width="33.202"
     height="31.719"
     viewBox="0 0 33.202 31.719"
>
    <g transform="translate(-281.688 -447.804)">
        <path d="m 307.594,479.523 c -0.2633,-1e-5 -0.52245,-0.0657 -0.754,-0.191 l -8.376,-4.385 c -0.12382,-0.0548 -0.26555,-0.0519 -0.387,0.008 l -8.331,4.381 c -1.16062,0.6095 -2.5173,-0.3732 -2.3,-1.666 l 1.606,-9.317 c 0.0349,-0.10721 0.003,-0.22495 -0.081,-0.3 l -6.81,-6.629 c -0.9256,-0.91119 -0.42638,-2.48769 0.855,-2.7 l 9.36,-1.357 c 0.12854,-0.0147 0.24118,-0.0928 0.3,-0.208 l 4.21,-8.491 c 0.39355,-0.78244 1.34792,-1.09623 2.129,-0.7 0.2986,0.15009 0.54091,0.3924 0.691,0.691 v 0.007 l 4.174,8.491 c 0.057,0.11196 0.16545,0.18865 0.29,0.205 l 9.354,1.357 c 0.85595,0.11157 1.46021,0.89474 1.351,1.751 -0.0477,0.36913 -0.22488,0.70933 -0.5,0.96 l -6.73,6.588 c -0.0892,0.0862 -0.13095,0.2104 -0.112,0.333 l 1.6,9.305 c 0.15644,0.85229 -0.40543,1.67072 -1.257,1.831 -0.0927,0.0203 -0.18712,0.0324 -0.282,0.036 z"/>
    </g>
</svg>
